<svg id="Layer_1" data-name="Layer 1" xmlns="http://www.w3.org/2000/svg" viewBox="0 0 1999.06 1999.73"><defs><style>.cls-1,.cls-12{fill:none;stroke-miterlimit:10;stroke-width:15px;}.cls-1{stroke:#231f20;}.cls-2{fill:#f16823;}.cls-3{fill:#9f9e9e;}.cls-4{fill:#fff;}.cls-5{fill:#3953a4;}.cls-6{fill:#b9529f;}.cls-7{fill:#f26722;}.cls-8{fill:#6fccdd;}.cls-9{fill:#f7ec13;}.cls-10{fill:#ed2024;}.cls-11{fill:#6abd45;}.cls-12{stroke:#ed2024;}</style></defs><line class="cls-1" x1="1544.78" y1="999.73" x2="1283.37" y2="999.73"/><line class="cls-1" x1="999.56" y1="1544.95" x2="999.56" y2="1283.54"/><line class="cls-1" x1="454.28" y1="999.73" x2="715.75" y2="999.73"/><line class="cls-1" x1="999.56" y1="460.12" x2="999.56" y2="715.92"/><rect class="cls-2" x="245" y="1538.11" width="209.28" height="209.28" rx="50"/><rect class="cls-1" x="245" y="1538.11" width="209.28" height="209.28" rx="50"/><rect class="cls-3" x="7.5" y="1296.76" width="209.28" height="209.28" rx="50"/><rect class="cls-1" x="7.5" y="1296.76" width="209.28" height="209.28" rx="50"/><path class="cls-1" d="M262.16,1552s4.3-50.63-57.31-58.75" transform="translate(-0.44 -0.27)"/><rect class="cls-4" x="7.5" y="1782.46" width="209.28" height="209.28" rx="50"/><rect class="cls-1" x="7.5" y="1782.46" width="209.28" height="209.28" rx="50"/><path class="cls-1" d="M262.16,1737s4.3,50.63-57.31,58.75" transform="translate(-0.44 -0.27)"/><rect class="cls-5" x="482.51" y="1296.76" width="209.28" height="209.28" rx="50"/><rect class="cls-1" x="482.51" y="1296.76" width="209.28" height="209.28" rx="50"/><path class="cls-1" d="M438,1552s-4.3-50.63,57.31-58.75" transform="translate(-0.44 -0.27)"/><rect class="cls-6" x="482.51" y="1782.46" width="209.28" height="209.28" rx="50"/><rect class="cls-1" x="482.51" y="1782.46" width="209.28" height="209.28" rx="50"/><path class="cls-1" d="M438,1737s-4.3,50.63,57.31,58.75" transform="translate(-0.44 -0.27)"/><rect class="cls-7" x="1544.78" y="1538.61" width="209.28" height="209.28" rx="50"/><rect class="cls-1" x="1544.78" y="1538.61" width="209.28" height="209.28" rx="50"/><rect class="cls-8" x="1307.27" y="1297.26" width="209.28" height="209.28" rx="50"/><rect class="cls-1" x="1307.27" y="1297.26" width="209.28" height="209.28" rx="50"/><path class="cls-1" d="M1561.94,1552.5s4.29-50.63-57.32-58.75" transform="translate(-0.44 -0.27)"/><rect class="cls-6" x="1307.27" y="1782.96" width="209.28" height="209.28" rx="50"/><rect class="cls-1" x="1307.27" y="1782.96" width="209.28" height="209.28" rx="50"/><path class="cls-1" d="M1561.94,1737.53s4.29,50.63-57.32,58.75" transform="translate(-0.44 -0.27)"/><rect class="cls-9" x="1782.28" y="1297.26" width="209.28" height="209.28" rx="50"/><rect class="cls-1" x="1782.28" y="1297.26" width="209.28" height="209.28" rx="50"/><path class="cls-1" d="M1737.78,1552.5s-4.3-50.63,57.32-58.75" transform="translate(-0.44 -0.27)"/><rect class="cls-4" x="1782.28" y="1782.96" width="209.28" height="209.28" rx="50"/><rect class="cls-1" x="1782.28" y="1782.96" width="209.28" height="209.28" rx="50"/><path class="cls-1" d="M1737.78,1737.53s-4.3,50.63,57.32,58.75" transform="translate(-0.44 -0.27)"/><rect class="cls-5" x="1544.78" y="248.85" width="209.28" height="209.28" rx="50"/><rect class="cls-1" x="1544.78" y="248.85" width="209.28" height="209.28" rx="50"/><rect class="cls-10" x="1307.27" y="7.5" width="209.28" height="209.28" rx="50"/><rect class="cls-1" x="1307.27" y="7.5" width="209.28" height="209.28" rx="50"/><path class="cls-1" d="M1561.94,262.74s4.29-50.63-57.32-58.75" transform="translate(-0.44 -0.27)"/><rect class="cls-5" x="1307.27" y="493.19" width="209.28" height="209.28" rx="50"/><rect class="cls-1" x="1307.27" y="493.19" width="209.28" height="209.28" rx="50"/><path class="cls-1" d="M1561.94,447.77s4.29,50.63-57.32,58.75" transform="translate(-0.44 -0.27)"/><rect class="cls-8" x="1782.28" y="7.5" width="209.28" height="209.28" rx="50"/><rect class="cls-1" x="1782.28" y="7.5" width="209.28" height="209.28" rx="50"/><path class="cls-1" d="M1737.78,262.74s-4.3-50.63,57.32-58.75" transform="translate(-0.44 -0.27)"/><rect class="cls-11" x="1782.28" y="493.19" width="209.28" height="209.28" rx="50"/><rect class="cls-1" x="1782.28" y="493.19" width="209.28" height="209.28" rx="50"/><path class="cls-1" d="M1737.78,447.77s-4.3,50.63,57.32,58.75" transform="translate(-0.44 -0.27)"/><rect class="cls-10" x="245" y="249.35" width="209.28" height="209.28" rx="50"/><rect class="cls-1" x="245" y="249.35" width="209.28" height="209.28" rx="50"/><rect class="cls-9" x="7.5" y="8" width="209.28" height="209.28" rx="50"/><rect class="cls-1" x="7.5" y="8" width="209.28" height="209.28" rx="50"/><path class="cls-1" d="M262.16,263.24s4.3-50.63-57.31-58.75" transform="translate(-0.44 -0.27)"/><rect class="cls-11" x="7.5" y="493.69" width="209.28" height="209.28" rx="50"/><rect class="cls-1" x="7.5" y="493.69" width="209.28" height="209.28" rx="50"/><path class="cls-1" d="M262.16,448.27s4.3,50.63-57.31,58.75" transform="translate(-0.44 -0.27)"/><rect class="cls-3" x="482.51" y="8" width="209.28" height="209.28" rx="50"/><rect class="cls-1" x="482.51" y="8" width="209.28" height="209.28" rx="50"/><path class="cls-1" d="M438,263.24s-4.3-50.63,57.31-58.75" transform="translate(-0.44 -0.27)"/><rect class="cls-10" x="482.51" y="493.69" width="209.28" height="209.28" rx="50"/><rect class="cls-1" x="482.51" y="493.69" width="209.28" height="209.28" rx="50"/><path class="cls-1" d="M438,448.27s-4.3,50.63,57.31,58.75" transform="translate(-0.44 -0.27)"/><rect x="715.75" y="715.92" width="567.62" height="567.62" rx="50"/><rect class="cls-12" x="715.75" y="715.92" width="567.62" height="567.62" rx="50"/><rect class="cls-8" x="1544.78" y="895.09" width="209.28" height="209.28" rx="50"/><rect class="cls-1" x="1544.78" y="895.09" width="209.28" height="209.28" rx="50"/><line class="cls-1" x1="1649.42" y1="1104.37" x2="1649.42" y2="1538.61"/><line class="cls-1" x1="1649.42" y1="895.09" x2="1649.42" y2="458.62"/><rect class="cls-11" x="894.92" y="250.85" width="209.28" height="209.28" rx="50"/><rect class="cls-1" x="894.92" y="250.85" width="209.28" height="209.28" rx="50"/><rect class="cls-6" x="894.92" y="1540.11" width="209.28" height="209.28" rx="50"/><rect class="cls-1" x="894.92" y="1540.11" width="209.28" height="209.28" rx="50"/><rect class="cls-9" x="245" y="895.09" width="209.28" height="209.28" rx="50"/><rect class="cls-1" x="245" y="895.09" width="209.28" height="209.28" rx="50"/><line class="cls-1" x1="894.92" y1="1649.59" x2="454.28" y2="1649.59"/><line class="cls-1" x1="1104.2" y1="1649.59" x2="1544.78" y2="1649.59"/><line class="cls-1" x1="349.64" y1="1104.37" x2="349.64" y2="1538.11"/><line class="cls-1" x1="349.64" y1="895.09" x2="349.64" y2="458.12"/><line class="cls-1" x1="454.28" y1="355.48" x2="894.92" y2="355.48"/><line class="cls-1" x1="1104.2" y1="355.48" x2="1544.78" y2="355.48"/><path class="cls-1" d="M1093.86,1560.14s166.61-323.63,466.28-466.28" transform="translate(-0.44 -0.27)"/><path class="cls-1" d="M439.86,1093.86s323.63,166.61,466.28,466.28" transform="translate(-0.44 -0.27)"/><path class="cls-1" d="M906.14,439.86S739.53,763.49,439.86,906.14" transform="translate(-0.44 -0.27)"/><path class="cls-1" d="M1560.14,906.14s-323.63-166.61-466.28-466.28" transform="translate(-0.44 -0.27)"/></svg>