<svg version="1.1" id="Layer_1" x="0" y="0" viewBox="0 0 348 348" style="enable-background:new 0 0 348 348" xml:space="preserve" xmlns="http://www.w3.org/2000/svg"><style type="text/css" id="style4092">.st0{fill:none;stroke:#000;stroke-width:2}</style><path class="st0" d="M307.4 27c0-8.4 7-15.2 15.6-15.2 4.1 0 8.1 1.6 11 4.4s4.6 6.7 4.6 10.7c0 8.4-7 15.2-15.6 15.2-8.6.1-15.6-6.7-15.6-15.1z" id="path4094"/><circle class="st0" cx="304.865" cy="47.769" r="6.1" id="circle4098"/><path style="fill:#000;stroke-width:.616393" d="M177.082 281.002c-3.33-1.48-4.931-3.802-4.931-7.152 0-2.475.315-3.32 1.823-4.895 1.003-1.047 2.876-2.219 4.161-2.604 3.077-.922 6.394.056 8.835 2.604 2.472 2.58 2.604 7.04.282 9.557-2.875 3.116-6.67 4.045-10.17 2.49zm-13.252-18.25c-19.575-2.72-36.742-11.05-50.24-24.374-13.089-12.924-21.04-27.961-24.75-46.807-1.644-8.35-1.482-23.824.338-32.361 2.548-11.948 6.844-22.367 12.96-31.436 1.715-2.543 3.122-5.118 3.126-5.723.017-2.373 3.91-7.214 5.817-7.236.704-.008 3.36-1.835 5.903-4.06 10.715-9.38 23.656-16.129 37.063-19.33 3.312-.792 5.293-1.607 5.855-2.41 1.784-2.546 8.21-3.164 10.708-1.028.561.48 3.586.935 7.705 1.16 3.729.202 9 .794 11.711 1.314 2.712.52 5.038.946 5.169.946.13 0-.5-.58-1.4-1.288-2.044-1.608-3.461-4.288-3.458-6.54.005-3.797 4.47-8.194 8.319-8.194 3.91 0 8.316 4.407 8.316 8.317 0 3.586-4.334 8.28-7.7 8.338-.678.012 1.541 1.08 4.931 2.374s7.623 3.094 9.406 4c3.047 1.55 3.35 1.592 5.054.71.998-.515 2.382-.937 3.077-.937.978 0 1.263-.397 1.263-1.758 0-4.316 5.014-8.072 9.62-7.208 2.694.505 5.665 3.254 6.152 5.692.284 1.417.877 1.907 3.22 2.66 2.01.645 3.29 1.55 4.268 3.017 1.77 2.654 1.769 4.874 0 7.5-2.662 3.95-8.309 4.65-12.057 1.496-1.517-1.276-1.938-1.378-2.87-.697-1.002.733-.862.987 1.692 3.08 2.605 2.135 3.026 2.273 6.524 2.134 2.057-.08 3.929.041 4.159.271.23.23 1.226-.155 2.212-.858 7.295-5.194 16.212 3.443 11.298 10.943-1.49 2.273-4.87 3.511-8.216 3.01l-2.751-.413 1.165 1.988c.895 1.527 1.845 2.16 4.1 2.73l2.935.744 1.235-1.998c1.324-2.142 4.494-3.979 6.866-3.979 2.32 0 5.558 2.071 6.82 4.363 3.275 5.944-2.27 12.996-8.84 11.242-2.303-.615-2.397-.581-2.397.856 0 .822-.293 2.043-.652 2.713-.555 1.037-.122.932 2.928-.707 2.831-1.521 4.084-1.858 5.992-1.61 3.322.43 5.43 2.166 6.538 5.383.516 1.498 1.689 3.52 2.606 4.494 1.718 1.823 2.731 5.187 2.076 6.894-.204.533.043 1.769.549 2.748 1.25 2.416 1.153 4.842-.288 7.204-1.999 3.279-6.375 4.816-9.282 3.26-1.11-.594-1.122-.524-.268 1.521 1.14 2.727 1.13 4.257-.04 6.518-1.038 2.009-3.771 3.678-6.02 3.678-1.335 0-1.524.364-2.063 3.967-.328 2.194-.363 4.587-.078 5.356.681 1.842.008 4.698-1.453 6.159-.896.896-4.244 8.395-4.244 9.507 0 .102.82.366 1.82.585 5.232 1.15 8.214 6.907 5.898 11.386-2.63 5.083-9.997 6.442-13.564 2.5-1.03-1.138-1.182-1.015-4.802 3.876-12.457 16.835-32.812 29.62-53.148 33.383-6.56 1.214-21.148 1.723-26.814.935zm25.888-1.893c3.147-.612 3.677-.861 2.469-1.16-2.046-.505-2.282-2.211-.512-3.693a267.33 267.33 0 0 0 3.282-2.81l1.85-1.611-3.001.283c-2.218.209-3.957.943-6.671 2.815-4.045 2.791-5.657 3.044-11.588 1.82-4.174-.863-7.293-.331-6.149 1.047.91 1.097 1.606 1.029-9.575.935-10.362-.088-10.923.538-1.865 2.08 3.06.521 6.257 1.07 7.104 1.22 2.928.517 20.662-.149 24.656-.926zm11.885-3.077c10.829-3.626 22.893-10.949 31.568-19.16 5.34-5.056 12.265-13.614 13.352-16.503.327-.868 2.217-4.49 4.2-8.05 5.432-9.748 8.487-20.7 8.685-31.128.058-3.051.142-7.048.188-8.882.07-2.827-.168-3.604-1.564-5.099-1.437-1.539-2.258-3.024-4.877-8.825-1.5-3.323-2.415-6.9-2.425-9.478-.012-3.384-1.414-10.327-2.835-14.047-.747-1.959-.837-2.873-.338-3.474 1.44-1.735-10.56-16.656-18.755-23.32-7.964-6.476-17.947-12.245-21.188-12.245-1.726 0-1.87.166-1.87 2.157 0 2.453-.56 2.628-4.148 1.292-2.73-1.016-8.558-2.833-9.088-2.833-.202 0-.08.537.27 1.192.892 1.666.796 2.506-.286 2.506-1.528 0-1.042 1.18.661 1.608.896.225 1.889.096 2.281-.297 1.076-1.075 1.315-.922 4.207 2.703 1.491 1.869 3.197 3.551 3.79 3.74 2.865.909.346 2.84-5.083 3.899-2.552.497-2.609.546-.706.608 1.23.04 2.811.692 3.9 1.608 1.007.848 2.295 1.545 2.863 1.55.567.006 1.418.255 1.891.555 1.403.888-2.495 2.518-6.021 2.518-2.607 0-3.351.286-4.98 1.915-2.8 2.8-3.746 5.016-3.572 8.368l.152 2.953-3.229 1.241c-1.776.683-3.232 1.588-3.236 2.012-.01 1.15.918.942 3.442-.77 1.249-.848 3.134-1.54 4.188-1.54 3.921.006 8.382 4.37 8.387 8.206.003 2.094-.851 3.86-2.962 6.123l-1.58 1.695h3.387c3.503 0 5.99 1.13 5.222 2.373-.242.391-1.91.71-3.722.71-2.789 0-3.43-.224-4.256-1.486-.836-1.276-1.32-1.439-3.433-1.155-1.872.25-3.019-.004-4.8-1.07-1.68-1.005-3.163-1.365-5.267-1.28-2.542.104-2.927-.04-2.927-1.094 0-.848.557-1.337 1.849-1.62 1.807-.397 2.462-1.706 1.232-2.466-.339-.21-.616-1.027-.616-1.817s-.485-2.005-1.079-2.699c-1.06-1.241-1.134-1.244-4.502-.172-2.033.647-3.912.9-4.623.62-.66-.257-2.101-.488-3.204-.512l-2.004-.043 1.234 2.302c1.465 2.734 1.568 5.363.305 7.785-1.167 2.237-1.16 2.857.032 2.857.87 0 2.253-1.226 4.522-4.008.963-1.181 3.927-.89 5.58.547.531.462 1.977 1.02 3.214 1.242 3.956.708 7.305 4.41 7.305 8.075 0 2.145-1.457 4.841-3.472 6.426-1.785 1.405-1.786 1.398.196 2.428.872.454 1.86.505 2.806.145 1.826-.694 3.552.19 3.552 1.819 0 .979.431 1.202 2.321 1.202 4.54 0 8.774 3.868 8.774 8.013 0 3.904-4.213 8.013-8.218 8.013-2.123 0-5.947-1.718-6.39-2.871-.37-.968-1.418-1.115-1.418-.2 0 .346 1.248 2.218 2.774 4.161 1.525 1.943 2.773 3.898 2.773 4.345 0 .555.604.383 1.906-.544 4.195-2.987 10.058-1.782 12.378 2.544 1.425 2.657 1.425 4.663 0 7.32-1.107 2.064-4.407 4.353-6.277 4.353-.74 0-.897.557-.71 2.519.298 3.123-.915 9.629-2.154 11.558-1.083 1.685-1.215 1.528 2.055 2.466 2.332.669 4.312 2.39 6.055 5.266.565.932.784.914 2.62-.217 1.607-.989 2.003-1.636 2.003-3.269 0-1.12.624-3.273 1.387-4.786 1.738-3.445 4.65-5.106 8.178-4.664 2.472.31 2.48.304 4.315-3.16 1.681-3.173 2.119-3.56 5.12-4.52 1.804-.576 4.097-1.83 5.094-2.786l1.813-1.737-2.591-1.263c-3.191-1.554-4.823-3.704-5.21-6.864-.353-2.884 1.108-6.038 3.667-7.915 2.46-1.805 7.08-1.743 9.612.128 1.703 1.26 1.898 1.292 1.88.308-.02-1.188-1.368-3.254-2.122-3.254-.257 0-1.752-.942-3.323-2.094-1.57-1.152-4.013-2.405-5.428-2.785-2.065-.554-3.178-1.462-5.65-4.608-2.54-3.23-3.493-3.994-5.442-4.354-1.299-.24-2.975-1.006-3.725-1.704l-1.363-1.268-2.168 1.904c-2.582 2.267-5.624 2.969-8.606 1.985-2.556-.844-5.218-3.768-5.721-6.286-.426-2.13-1.577-1.985-5.51.697-1.682 1.148-2.827 1.555-3.39 1.205-.467-.29-1.96-.399-3.315-.24-2.33.271-2.364.253-.617-.338 1.017-.344 2.543-.57 3.39-.504.848.067 2.512-.495 3.699-1.247 1.187-.753 2.86-1.519 3.72-1.703.965-.207 2.028-1.182 2.774-2.546 1.581-2.887 3.828-4.488 6.812-4.854 4.822-.59 9.744 3.86 9.409 8.508-.217 3.002 1.203 4.52 5.358 5.728 2.488.723 3.562 1.427 4.504 2.95 1.893 3.057 4.461 5.247 7.353 6.267 1.441.508 3.544 1.629 4.672 2.49 1.129.86 2.33 1.564 2.669 1.564 1.472 0 2.96 2.702 3.171 5.76.634 9.186.077 10.732-4.705 13.063-1.417.69-3.64 2.294-4.94 3.564-1.301 1.27-3.454 2.605-4.784 2.967-3 .815-4.361 1.997-5.85 5.08l-1.161 2.402 1.472 1.75c3.275 3.892 3.537 8.843.667 12.606-3.144 4.122-9.804 4.25-12.765.246-.742-1.004-1.838-1.825-2.437-1.825-1.948 0-4.228 1.4-4.228 2.595 0 3.03-3.427 6.84-6.823 7.585-2.185.48-4.583 4.523-4.018 6.775.304 1.21.06 1.457-1.791 1.804-4.458.836-6.249-2.557-4.374-8.289.908-2.776.915-3.26.07-4.896-2.03-3.922-.222-8.564 4.172-10.718 2.74-1.343 4.51-4.423 5.443-9.467.97-5.242.417-7.034-2.623-8.504-3.593-1.737-5.012-4.538-4.529-8.937.341-3.1.203-3.646-1.61-6.374-1.09-1.641-2.329-3.117-2.752-3.28-.9-.344-1.046-8.298-.195-10.565.293-.78 1.394-2.206 2.448-3.168 1.459-1.333 1.815-2.067 1.493-3.08-.372-1.173-.728-1.286-2.991-.95-2.038.302-2.83.136-3.834-.806-.865-.81-1.855-1.1-3.127-.913-2.472.363-5.965-1.16-7.397-3.222-.635-.916-2.089-2.748-3.23-4.07-2.066-2.395-2.095-2.405-6.667-2.405-2.525 0-5.197-.32-5.938-.712-2.261-1.195-6.185-4.923-9.956-9.458-5.12-6.16-5.593-6.544-3.786-3.087 1.908 3.649 1.953 4.011.501 4.011-2.055 0-7.522-6.817-7.522-9.38 0-.447-.652-1.778-1.45-2.959-.797-1.18-1.639-3.174-1.871-4.43-.596-3.225.71-10.18 2.498-13.297.931-1.624 1.364-3.103 1.127-3.85-.212-.668.193-2.843.9-4.834.707-1.991 1.112-4.072.9-4.625-.528-1.375-2.607-1.257-5.146.29-1.334.814-3.76 1.449-6.55 1.715-4.251.406-4.613.572-8.852 4.04-15.043 12.307-25.366 29.34-29.723 49.042-1.203 5.44-1.432 8.241-1.436 17.567-.005 11.822.646 16.36 3.81 26.505 6.77 21.707 24.346 41.686 45.211 51.392 8.164 3.798 10.512 4.445 13.304 3.666 1.427-.398 5.156-.53 9.314-.328 5.48.265 6.935.166 6.935-.472 0-1.682 4.163-2.022 11.059-.903 3.626.588 4.107.534 5.547-.62 3.132-2.508 7.162-4.177 11.027-4.565 4.8-.481 4.786.084-.098 3.804-1.922 1.465-3.496 3.06-3.496 3.545 0 1.341 5.486 1.121 10.036-.403zm16.053-51.36c-3.897-1.76-5.544-6.95-3.425-10.797 1.284-2.33 4.51-4.363 6.923-4.363 3.739 0 8.013 4.198 8.013 7.87 0 2.276-1.62 5.512-3.315 6.623-2.169 1.421-5.859 1.721-8.196.666zm-10.46-90.17c-1.327-.26-2.426-3.11-1.55-4.02.468-.486 5.494 1.088 6.72 2.105.426.354.775 1.026.775 1.493 0 .839-2.8 1.038-5.945.422zm4.096-.837c0-.546-3.571-2.435-4.603-2.435-.18 0-.328.538-.328 1.196 0 .928.518 1.25 2.311 1.437 1.271.133 2.38.289 2.466.346.084.057.154-.188.154-.544zm-15.41 127.902c0-.864.453-2.447 1.006-3.517.589-1.138.752-2.03.394-2.15-.337-.112-1.623-.719-2.857-1.348l-2.245-1.145-.975 3.354c-.892 3.069-.89 3.481.016 4.865.685 1.045 1.558 1.513 2.826 1.513 1.556 0 1.835-.24 1.835-1.572zm69.238-72.779c-.582-.889-1.27-2.9-1.527-4.469-.907-5.534-1.973-8.453-3.508-9.611l-1.529-1.153.395 1.49c.217.82.7 3.71 1.076 6.422 1.061 7.678 1.07 7.703 2.591 7.714.757.005 1.792.278 2.3.607 1.352.873 1.37.782.202-1zm-5.891-6.243c-1.138-8.641-5.301-21.664-8.884-27.786-1.689-2.885-2.676-3.065-1.531-.28 1.052 2.561 2.52 10 2.533 12.83.012 2.937 1.17 7.304 3.181 12 1.54 3.593 3.997 7.397 4.78 7.397.257 0 .222-1.872-.08-4.16zm-83.174-12.56c.99-.89 2.18-1.77 2.646-1.955.699-.28.685-.452-.078-.992-1.738-1.23-3.515-.722-5.198 1.484-1.299 1.704-2.077 2.158-3.696 2.158-1.128 0-3.105.44-4.394.979-1.289.538-3.293.868-4.453.733-1.865-.218-1.981-.153-1.004.561.684.5 2.904.809 5.823.809 3.95 0 4.901.202 5.844 1.244 1.117 1.234 1.133 1.225 1.919-1.078.436-1.278 1.602-3.052 2.591-3.942zm27.52.747c.918-.358.458-.563-1.85-.825-3.302-.375-4.188-.117-2.743.797 1.074.679 2.899.69 4.593.029zm-50.66-6.13c-.872-6.498 6.247-11.83 12.216-9.15 3.326 1.494 9.575 1.768 13.378.586 3.925-1.22 5.188-.694 5.707 2.378.353 2.086.356 2.088.823.455.286-.996.177-2.183-.278-3.033-.63-1.178-.572-1.523.374-2.214.616-.451 1.51-.82 1.986-.82s1.602-.435 2.502-.966c1.47-.868 1.636-1.329 1.636-4.517 0-2.936.298-3.94 1.72-5.806 2.272-2.978 3.827-3.767 7.47-3.792 1.857-.012 3.129-.319 3.288-.79.144-.425-.069-.771-.472-.771-.403 0-1.557-.694-2.564-1.541-3.04-2.558-4.761-2.058-8.425 2.447-.458.563-.99.867-1.182.675-.192-.192.542-1.458 1.632-2.814 1.608-2.002 1.779-2.466.904-2.466-.75 0-.88-.195-.43-.645.354-.356 2.243-.778 4.197-.94 1.953-.161 4.06-.565 4.68-.897 1.017-.544.829-.916-1.917-3.78-1.675-1.747-3.045-3.348-3.045-3.558 0-.21-1.074-.28-2.386-.155-2.554.243-6.548-1.362-5.92-2.379.201-.324 1.042-.59 1.87-.59 2.975 0 1.152-2.64-2.875-4.165-1.562-.59-2.87-1.352-2.906-1.69-.104-.967 4.25-.31 6.894 1.039 2.593 1.323 11.035 4.2 12.324 4.2.536 0 .71-.607.527-1.85-.216-1.474-.045-1.849.846-1.849 3.54 0-6.405-3.522-15.155-5.367-7.4-1.56-24.635-1.52-32.36.078-10.332 2.136-24.807 8.019-29.895 12.15l-1.541 1.252 2.983-.354c1.642-.195 4.32-1.105 5.954-2.023 2.568-1.443 3.187-1.571 4.567-.942 1.847.841 2.017 2.312.69 5.993-.488 1.356-.9 3.515-.915 4.798-.015 1.282-.687 3.64-1.493 5.239-2.75 5.454-3.086 11.785-.833 15.732.811 1.422 1.845 3.556 2.298 4.743.91 2.384 4.691 7.396 5.58 7.396.621 0-1.673-4.73-2.56-5.278-.903-.558-.629-2.118.371-2.118 1.033 0 1.629.584 6.472 6.359 1.865 2.223 3.434 4.059 3.486 4.08.053.022-.048-1.032-.224-2.34zm4.794-17.775c-7.603-3.997-5.696-14.944 2.784-15.982 4.505-.552 8.697 2.853 9.27 7.527.787 6.43-6.363 11.446-12.054 8.455zm25.014-4.393c-.127-.229-.43-1.247-.674-2.262-.936-3.9-2.81-4.246-2.81-.518 0 1.741-.198 2.11-.975 1.813-.536-.206-1.25-.374-1.588-.374-.337 0-.524-1.03-.416-2.29.183-2.117.047-2.333-1.802-2.863-1.1-.315-1.999-.806-1.999-1.092 0-.285 1.137-1.27 2.527-2.19 2.298-1.521 2.58-1.578 3.112-.625.323.576.934 1.047 1.36 1.047.425 0 2.101.842 3.724 1.872 2.07 1.312 2.842 2.158 2.584 2.83-.241.63.057 1.07.868 1.282 1.313.344 1.658 1.695.598 2.35-1.199.74-4.278 1.437-4.509 1.02zm2.938-1.099c.536-.206.975-.596.975-.867 0-.62-2.368-.032-2.82.7-.388.628.446.704 1.845.167zm-6.921-3.165c.252-3.044 1.9-3.432 3.276-.77.815 1.575 1.162 1.795 1.885 1.195 1.489-1.235 1.037-1.798-2.967-3.692-4.383-2.074-4.959-2.165-5.97-.946-.59.71-.458.915.695 1.078 1.159.165 1.437.602 1.498 2.36.102 2.914.146 3.081.812 3.081.319 0 .666-1.037.77-2.306zm-12.29-8.44c-1.442-1.492-2.622-2.944-2.624-3.226-.002-.282-.829-.982-1.837-1.556-2.307-1.312-4.319-4.56-4.319-6.97 0-1.017.54-2.736 1.201-3.819 3.468-5.687 11.042-5.784 14.644-.188 2.224 3.456 2.561 3.699 5.146 3.699h2.456l-1.006-1.535c-.894-1.364-.9-1.575-.062-1.897 1.379-.529 3.505.818 3.505 2.22 0 .874.42 1.212 1.505 1.212 1.936 0 2.583 1.026.97 1.538-1.386.44-1.609 1.547-.529 2.627.534.534.537.927.014 1.558-.524.63-.517 1.33.029 2.776.4 1.063.547 2.115.323 2.338-.836.837-3.605-.437-4.168-1.917-.46-1.21-1.012-1.523-2.683-1.523-2.157 0-5.38-1.994-4.556-2.82.252-.253.993.024 1.647.615.654.592 2.266 1.22 3.584 1.398 1.664.223 2.572.723 2.976 1.639.319.725 1.117 1.419 1.774 1.543 1.154.217 1.158.17.112-1.425-.85-1.297-.924-1.838-.347-2.533.568-.684.56-1.09-.032-1.804-.42-.507-.619-1.478-.441-2.158.302-1.153.029-1.234-4.088-1.213l-4.411.022-1.233 2.597c-.714 1.504-2.202 3.222-3.535 4.081l-2.301 1.484 1.223 1.98c1.39 2.25 1.589 3.995.452 3.98-.423-.006-1.949-1.231-3.39-2.723zm1.62-1.55c-.765-1.035-1.754-1.88-2.199-1.88-1.126 0-1.065.136 1.195 2.668 2.313 2.593 3.066 2.001 1.003-.789zm-21.147-12.712c-.533-.532-.969-1.087-.969-1.232 0-.146 2.22-.265 4.931-.265 2.712 0 4.931.215 4.931.477 0 .441-5.615 1.989-7.216 1.989-.39 0-1.145-.436-1.677-.969zm3.962-.638c0-.133-.763-.238-1.695-.233-1.233.007-1.458.16-.826.56.785.497 2.521.272 2.521-.327zm34.773 51.004c.18-.291.19-.668.022-.836-.484-.485-3.359.22-3.359.822 0 .701 2.905.714 3.337.014zm-91.437 95.642c-7.603-3.997-5.697-14.944 2.783-15.982 4.506-.552 8.698 2.853 9.27 7.528.787 6.43-6.363 11.445-12.053 8.454z" id="path4755"/></svg>