<svg version="1.1" id="Layer_1" x="0" y="0" viewBox="0 0 348 348" style="enable-background:new 0 0 348 348" xml:space="preserve" xmlns="http://www.w3.org/2000/svg"><style type="text/css" id="style4092">.st0{fill:none;stroke:#000;stroke-width:2}</style><path class="st0" d="M307.4 27c0-8.4 7-15.2 15.6-15.2 4.1 0 8.1 1.6 11 4.4s4.6 6.7 4.6 10.7c0 8.4-7 15.2-15.6 15.2-8.6.1-15.6-6.7-15.6-15.1z" id="path4094"/><circle class="st0" cx="174.132" cy="175.464" id="circle4096" r="102.87"/><circle class="st0" cx="304.865" cy="47.769" r="6.1" id="circle4098"/><ellipse style="fill:#fff;stroke:#000;stroke-width:1.51236;stroke-linecap:round;stroke-linejoin:round;stop-color:#000" id="path4184-3" cx="290.294" cy="173.568" rx="9.434" ry="9.783"/><ellipse style="fill:#fff;stroke:#000;stroke-width:1.51236;stroke-linecap:round;stroke-linejoin:round;stop-color:#000" id="path4184-3-2" cx="173.136" cy="174.432" rx="9.434" ry="9.783"/><ellipse style="fill:#fff;stroke:#000;stroke-width:1.51236;stroke-linecap:round;stroke-linejoin:round;stop-color:#000" id="path4184-3-8" cx="174" cy="57.424" rx="9.434" ry="9.783"/><ellipse style="fill:#fff;stroke:#000;stroke-width:1.51236;stroke-linecap:round;stroke-linejoin:round;stop-color:#000" id="path4184-3-0" cx="56.561" cy="174.864" rx="9.434" ry="9.783"/><ellipse style="fill:#fff;stroke:#000;stroke-width:1.51236;stroke-linecap:round;stroke-linejoin:round;stop-color:#000" id="path4184-3-3" cx="174" cy="290.576" rx="9.434" ry="9.783"/><path style="fill:#fff;fill-opacity:1;stroke:#000;stroke-width:1.6;stroke-linecap:round;stroke-linejoin:round;stroke-miterlimit:4;stroke-dasharray:none;stroke-opacity:1;stop-color:#000" id="path748" d="m296.189 306.55-16.112-8.674-16.28 8.355 3.272-18.004-12.977-12.901 18.134-2.453 8.26-16.327 7.935 16.488 18.082 2.81-13.23 12.642z" transform="matrix(1.4692 0 0 1.43576 -115.885 -113.637)"/><ellipse style="fill:#000;fill-opacity:1;stroke:#000;stroke-width:1.6;stroke-linecap:round;stroke-linejoin:round;stroke-miterlimit:4;stroke-dasharray:none;stroke-opacity:1;stop-color:#000" id="path1711" cx="287.769" cy="291.223" rx="4.533" ry="9.715"/><ellipse style="fill:#fff;fill-opacity:1;stroke:#000;stroke-width:1.6;stroke-linecap:round;stroke-linejoin:round;stroke-miterlimit:4;stroke-dasharray:none;stroke-opacity:1;stop-color:#000" id="path1713" cx="286.258" cy="289.928" rx="2.591" ry="4.965"/><ellipse style="fill:#000;fill-opacity:1;stroke:#000;stroke-width:1.6;stroke-linecap:round;stroke-linejoin:round;stroke-miterlimit:4;stroke-dasharray:none;stroke-opacity:1;stop-color:#000" id="path1711-9" cx="302.665" cy="291.007" rx="4.533" ry="9.715"/><ellipse style="fill:#fff;fill-opacity:1;stroke:#000;stroke-width:1.6;stroke-linecap:round;stroke-linejoin:round;stroke-miterlimit:4;stroke-dasharray:none;stroke-opacity:1;stop-color:#000" id="path1713-8" cx="301.154" cy="289.712" rx="2.591" ry="4.965"/><path style="fill:none;stroke:#000;stroke-width:1px;stroke-linecap:butt;stroke-linejoin:miter;stroke-opacity:1" d="M116.26 126.557c.737-.192 1.54-.337 2.213-.673.537-.269 1.058-.674 1.636-.866.535-.179 1.001-.25 1.54-.385.113-.029.283.05.385 0 .117-.059.734-.228.866-.097.023.023-.022.074 0 .097.16.16.655.258.866.385.392.235-.006.158.385.288.176.059.645.067.77.193.023.022-.022.073 0 .096.04.04.23.067.289.096.081.04.106.164.193.193.066.022.325-.008.192.192-.533.8-1.138 1.576-1.636 2.406-.256.427-.363.919-.578 1.348-.04.08-.151.11-.192.192-.029.057.016.13 0 .193-.035.139-.158.245-.193.384-.045.18-.05.395-.096.578-.056.227-.22 1.388-.096 1.636.197.393 1.292 1.141 1.732 1.251.063.016.136-.029.193 0 .376.188.874.678 1.251.866.227.114.768.336.962.482.058.043.046.141.097.192.101.101.27.106.385.193.434.325.796.755 1.25 1.058.217.145.53.168.77.289 1.023.511 1.176.648 1.348 2.021.163 1.307-.232 2.601-.481 3.85-.155.775-.231 1.617-.578 2.31-.099.197-.325.21-.48.288-.38.19-.861.668-1.156.963-.101.101-.113.265-.192.385-.052.077-.73.922-.77.962-.042.042-.416.363-.481.385-.061.02-.14-.036-.193 0-.06.04-.039.15-.096.192-.108.081-.373.12-.481.193-.076.05-.112.152-.193.192-.149.075-.66.186-.866.29-.619.308-1.195.804-1.828 1.058-.06.024-.133-.024-.193 0-.352.14-.919.659-1.251.77-1.022.34-2.014.896-3.08 1.25-.488.163-.756.186-1.155.386-.205.102-1.856-.044-2.117-.096-.724-.145-1.885-.827-2.406-1.348-.622-.621.186-.005-.385-.481a13.126 13.126 0 0 1-.866-.77c-.188-.188-.314-.542-.578-.674-.352-.176-.489-.336-.77-.673-.27-.326-.36-.83-.577-1.155-.199-.298-.56-.619-.674-.963-.121-.364-.072-.698-.192-1.058-.445-1.336-.017-2.221.481-3.465.091-.228.101-.446.193-.674.069-.173.248-.375.288-.577.352-1.76 1.224-3.12 2.021-4.716.047-.093.05-.291.097-.385.264-.53.573-1.028.866-1.54.1-.176.117-.389.192-.577.106-.264.316-.453.481-.674.307-.409-.066.022.097-.385.091-.228.253-.551.385-.77.258-.431.74-.71.962-1.155.216-.43-.091-1.737.192-2.02.376-.376.052.021.29-.097.147-.074.074-.172.192-.289.132-.132.335-.172.48-.288.302-.241.675-.877.675-1.252" id="path2001"/><path style="fill:none;stroke:#000;stroke-width:1px;stroke-linecap:butt;stroke-linejoin:miter;stroke-opacity:1" d="M118.28 138.203c-.534.224-1.142.44-1.635.77-.156.104-.515.61-.674.77-.247.246-.455.429-.578.673-.14.281-.41 2.33-.288 2.695.042.128.13.262.192.385.051.102.01.3.096.385.046.045.147-.046.193 0 .023.023-.023.073 0 .096.244.244 2.189.686 2.598.481.124-.061.257-.15.385-.192.093-.031.293.046.385 0 .081-.04.107-.164.193-.193.14-.046.345-.028.481-.096.315-.157.139-.142.577-.289.06-.02.829-.945.867-1.058.022-.066.047-.529.096-.578.023-.022.073.023.096 0 .064-.063.043-.568.096-.673.194-.388.759-.611.578-1.155-.061-.183-.946-.934-1.059-.963-.203-.05-.203.086-.385-.096-.05-.05-.045-.142-.096-.192-.347-.348-1.705-.77-2.117-.77z" id="path2003"/><path style="fill:none;stroke:#000;stroke-width:1px;stroke-linecap:butt;stroke-linejoin:miter;stroke-opacity:1" d="M139.454 121.168c.732-.012 1.662-.262 2.406-.096.168.037.313.15.481.192.584.146 3.133 0 3.85 0 .257 0 1.114-.11 1.443 0 .043.015.053.082.096.096.197.066 2.278.065 2.599 0 .186-.037.59-.036.77-.096.286-.095.869-.649 1.155-.577.523.13 1.363.497 1.732.866.023.023 0 .064 0 .096.032.032.059.071.096.096.06.04.153.037.193.096.035.054-.036.14 0 .193.087.13.46.364.577.481.264.264.517.745.674 1.059.2.4-.007-.103.192.096.12.119.246.438.385.577.118.118.215.046.29.193.104.21.183.7.095.962-.107.322-.375.621-.673.77-.147.074-.209.265-.289.385-.068.103-.741.611-.866.674-.434.217-.885.23-1.348.385-.144.048-.336-.048-.48 0-.129.043-.258.15-.386.192-.122.041-.259-.025-.385 0-.547.11-1.656.379-2.213.193-.043-.014-.052-.085-.096-.096-.454-.114-.985.092-1.444 0-.663-.133-1.345-.273-2.021-.385-.329-.055-.446-.193-.77-.193-.787 0-1.633-.11-1.829.866-.175.877-.118 1.052.77 1.348.081.027.213-.038.289 0 .11.055.344.192.481.192.046 0 .052-.085.096-.096.217-.054.457-.042.674-.096.314-.079.501-.347.77-.481.07-.035.44-.056.481-.097.023-.022-.029-.081 0-.096.058-.028.13.016.193 0 .464-.116-.005-.045.288-.192.169-.085.487.037.674 0 .565-.113.97-.094 1.54.096.697.232-.152-.028.289.192.077.039.211-.038.288 0 .33.165.785.2 1.155.385.188.095.274.274.385.385.122.122.426.137.578.29.05.05.045.14.096.192.23.23.395.303.577.577.148.221.055-.041.29.193.238.238.672 1.054.769 1.347.047.142.084.373.192.481.023.023.074-.023.097 0 .022.023-.029.082 0 .096.057.029.131-.02.192 0 .148.05.248.207.385.289.453.272.878.493 1.251.866.213.213.247.614.481.77.1.067.518.362.578.481.014.03-.023.074 0 .097.376.375.052-.023.289.096.52.26.438.9.288 1.347-.036.11.051.283 0 .385-.182.364-.826 1.788-1.058 2.021-.051.05-.15.039-.193.096-.117.157-.077.472-.288.578-.058.029-.136-.029-.193 0-.081.04-.106.164-.192.192-.29.097-.097-.048-.29 0-.455.114-.935.152-1.347.289-.09.03-.837.52-.866.577-.054.11-.06.202-.192.29-.085.056-.217.024-.289.095-.048.049-.048.145-.096.193-.045.044-.23-.03-.289 0-.094.047-.3.128-.385.192-.154.116-.514.484-.577.674-.02.061.028.135 0 .193-.015.028-.074-.023-.096 0-.055.054-.05.314-.097.385-.153.23-.339.437-.48.673-.085.14-.18.467-.29.578-.16.16-.623.334-.866.577-.05.05-.056.133-.096.193-.133.2-.415.318-.577.48-.133.133-.157.35-.29.482-.252.253-1.324.885-1.635.962-.094.024-.198-.03-.289 0-.192.065-.289.225-.481.29-.126.04-.267.036-.385.095-.081.04-.111.152-.193.193-.136.068-1.003.233-1.058.289-.023.022.022.073 0 .096-.066.065-.297-.044-.385 0-.272.136-1.722.534-2.021.385-.319-.16-.69-.215-1.059-.289-.422-.084-.96 0-1.347-.192-.706-.353-.778-.974-1.155-1.54-.314-.471-.918-.689-1.251-1.155-.258-.361-.346-.904-.578-1.251-.235-.353-.273-.34-.385-.674-.028-.086-.164-.106-.192-.193-.022-.065-.185-.585-.096-.673.179-.18.558-.108.77-.193.21-.084.571-.252.77-.385 1.06-.707 2.248-1.048 3.464-1.25.5-.084.952-.455 1.444-.578.285-.071.582-.122.866-.193.235-.059.511-.32.77-.385.313-.078.468-.138.77-.288.443-.222.127-.006.577-.097.571-.114 1.311-.721 1.636-1.155.52-.692-.107.204.385-.288.403-.403.847-1.002.578-1.54-.029-.058.028-.135 0-.193-.592-1.184-2.296-.486-3.176-.192a4.766 4.766 0 0 0-1.444.77c-.17.127-.408.162-.577.289-.353.264-.592.619-.963.866-.12.08-.283.09-.385.192-.05.05-.045.142-.096.193-.156.155-1.127.852-1.347.962-1.063.531-2.354.565-3.561.866-.182.046-.394-.036-.578 0-.32.065-1.913.247-2.213.096-.986-.493-1.532-1.62-2.021-2.598-.119-.237-.512-1.287-.385-1.54.105-.21.454-.358.577-.481.237-.237.406-.661.481-.963.14-.557.404-1.114.578-1.636.103-.309.065-.645.192-.962.154-.383.213-.487.289-.866-.071-.178.164-.177.193-.289.109-.436-.045-1.021.096-1.444.172-.517.837-.616 1.058-1.058.064-.127.05-.246.097-.385.065-.195.552-.72.673-.963.02-.04.076-.055.096-.096.03-.057-.045-.147 0-.192.023-.023.082.028.097 0 .044-.089-.014-.508 0-.578.045-.225.23-.442.288-.673.062-.246.162-1.124.29-1.252.07-.07.168-.073.288-.192.234-.234-.029-.141.192-.289.129-.085.373-.18.482-.288.375-.376-.023-.052.096-.29.13-.258.369-.657.577-.865.023-.023.068.014.096 0 .164-.082.15-.339.29-.385.358-.12.208-.017.577-.385z" id="path2005"/><path style="fill:none;stroke:#000;stroke-width:1px;stroke-linecap:butt;stroke-linejoin:miter;stroke-opacity:1" d="M166.016 123.478c-.497.705-.519 1.46-.77 2.213-.174.524-.47 2.342-.288 2.887.158.476.963 1.445 1.347 1.637.064.032.032.16.096.192.058.029.135-.029.193 0 .064.032.032.16.096.193.238.118.518.204.77.288.191.064 3.557.002 3.56 0 .092-.045.555-.216.675-.096.068.068.234.374.288.481.039.077-.038.212 0 .289.176.352-.012.879-.288 1.155-.046.045-.136-.029-.193 0-.081.04-.106.164-.192.192-.199.066-.405.117-.578.29-.16.16-.19.283-.289.48-.2.4.007-.103-.192.097-.045.045.029.135 0 .192-.194.387-.09 1.334-.193 1.54-.365.732-.567 1.424-.962 2.213-.07.142-.02.33-.096.482-.137.272.124 1.774.192 2.117.078.388 0 .85 0 1.251 0 .398-.207 1.992-.096 2.214.177.354.606.399.963.577.213.107.443.308.673.385.092.03.203-.043.289 0 .081.04.104.17.192.193 1.03.257 3.082.576 4.043.096.211-.106 1.428.111 1.54 0 .022-.023-.023-.074 0-.096.214-.215.75.019.962-.193.023-.023-.029-.082 0-.096.102-.051.277-.042.385-.096.439-.22 1.15-1.145 1.347-1.636.024-.06-.029-.136 0-.193.04-.081.142-.117.193-.192.056-.085.07-.378.096-.482.072-.289.23-.38.289-.673.2-1.003.192-2.048.192-3.08 0-.62-.226-1.791-.096-2.31.145-.579.814-1.086 1.155-1.54.46-.614-.269.23.192-.385.247-.33.69-.593.866-.77.049-.048-.048-.24 0-.288.023-.023.082.028.097 0 .252-.505-.334-1.547-.097-2.021.02-.041.065-.065.097-.097 0-.064-.02-.131 0-.192.028-.086.163-.106.192-.193.02-.06-.029-.135 0-.192.014-.029.074.023.096 0 .072-.072.025-.217.096-.289.023-.022.082.029.097 0 .04-.082.022-.31.096-.385.023-.022.073.023.096 0 .064-.064-.064-.32 0-.385.2-.199-.008.305.193-.096.048-.097.157-.639.192-.674.023-.022.074.023.096 0 .036-.035.067-.325.096-.385.167-.333.263-.635.482-.962.13-.194.02-1.408.096-1.636.192-.578.613-1.338.385-2.021-.075-.224-.203-.684-.385-.866-.179-.179-.425-.348-.578-.578-.171-.257-1.04-1.373-1.25-1.443-.092-.03-.203.043-.29 0a2.754 2.754 0 0 0-.577-.193c-.124-.031-.263.04-.385 0-.096-.032-.193-.16-.289-.192-.06-.02-.139.035-.192 0-.149-.1-.277-.47-.385-.578-.07-.07-.772.242-.866.289-.324.162-1.752-.035-2.118-.096-.547-.092-1.172 0-1.732 0-.709 0-1.355.026-2.02.192-.013.003-.357-.029-.386 0-.023.023.015.068 0 .096-.074.148-.171.076-.289.193a3.097 3.097 0 0 0-.385.481c-.075.114-.23.135-.288.193-.023.022.022.073 0 .096-.14.139-.77.32-.963.385-.115.038-.27-.039-.385 0-.327.109-.573.43-.866.577-.234.117-1.317.163-1.347.193-.023.022.022.073 0 .096-.102.101-.284.09-.385.192-.355.355.23.04-.289.385-.027.018-.074-.022-.096 0-.023.023.023.074 0 .097-.068.068-.195-.024-.289 0-.275.068-.531.169-.77.288-.057.029-.147-.045-.192 0-.048.048-.13.226-.193.289-.115.116-.322-.057-.481-.096z" id="path2007"/><path style="fill:none;stroke:#000;stroke-width:1px;stroke-linecap:butt;stroke-linejoin:miter;stroke-opacity:1" d="M194.985 123.959a7.19 7.19 0 0 1-1.251.577c-.102.034-.27.28-.289.29-.057.028-.135-.03-.192 0-.029.013.028.081 0 .095-.058.029-.132-.02-.193 0-.098.033-.62.47-.673.578-.181.361-.347 1.173-.193 1.636.049.147.15.308.193.481.003.012-.03.356 0 .385.022.023.081-.029.096 0 .133.267-.043.877.096 1.155.155.31.23.653.385.962.075.151.464.56.577.674.023.023.065 0 .097 0 .064.064.142.117.192.192.018.027-.023.074 0 .097.154.154 2.308.89 2.599.962.28.07.434-.023.673.096.08.04.294 0 .385 0 .19 0 1.697-.088 1.829 0 .142.095.333.423.385.578.264.791-.087 1.33-.385 1.925-.015.03-.186.282-.193.288-.022.023-.082-.028-.096 0-.05.102-.042.277-.096.385-.087.174-.3.313-.385.481-.131.263-.07.623-.193.867-.112.224-.175.543-.288.77-.038.075-.149.34-.193.385-.022.022-.082-.03-.096 0-.029.057.029.135 0 .192-.014.029-.074-.023-.096 0-.05.05-.047.335-.096.385-.023.023-.074-.023-.097 0-.06.061.04.305 0 .385-.038.076-.187.182-.192.192-.039.077.038.212 0 .29-.067.133-.643.85-.674.865-.028.015-.073-.022-.096 0a6.813 6.813 0 0 0-.192.29c-.03.056.045.146 0 .192-.023.022-.082-.03-.097 0-.066.132-.286.967-.192 1.154.122.244.3.224.385.482.03.09-.043.202 0 .288.073.146.186.475.289.578.022.023.081-.029.096 0 .028.057-.016.13 0 .192.022.09.235.525.289.578.022.022.073-.023.096 0 .077.077.257 1.412.288 1.443.27.27.963.626 1.444.867.17.084.485-.038.674 0 .1.02.188.08.288.096.429.071 1.478-.176 1.83 0 .421.21 1.132.096 1.635.096.75 0 1.518-.032 2.117-.481.693-.52-.203.107.29-.385.18-.182.367-.255.48-.481.065-.13.23-.134.29-.193.086-.087.244-.447.288-.577.104-.314.15-.588.289-.867.051-.103-.038-.273 0-.385.109-.327.326-.613.385-.962.084-.507.003-2.605.096-2.79.068-.138.194-.484.288-.578.023-.023.074.022.097 0 .045-.046-.046-.147 0-.193.052-.052.246-.16.288-.289.144-.43.34-.828.482-1.25.102-.308-.047-.773.096-1.06.061-.123.15-.256.192-.384.068-.202-.067-.472 0-.674.08-.238.182-.556.289-.77.082-.164.339-.15.385-.289.03-.091-.043-.202 0-.288.22-.44-.04.408.192-.29.2-.597-.712-1.077-.385-1.731.057-.113.115-.403.193-.482.048-.048.144-.048.192-.096.046-.045-.028-.135 0-.192.116-.232.296-.502.385-.77.02-.061-.045-.147 0-.193.023-.022.074.023.097 0 .009-.009.213-1.293.288-1.443.13-.26.419-.554.482-.867.166-.834.296-1.717-.097-2.502-.05-.102-.01-.299-.096-.385-.032-.032-.257-.064-.289-.096-.022-.023.029-.082 0-.096-.057-.029-.135.028-.192 0-.029-.015.029-.082 0-.096-.058-.03-.13.015-.193 0-.193-.049-.619-.427-.77-.578-.338-.338-.512-1.026-.962-1.251-.057-.029-.135.029-.192 0-.082-.04-.107-.164-.193-.192-.204-.068-.375-.058-.577-.193-.45-.3-.774-.514-1.252-.674-.175-.058-.618.016-.77 0-.793-.079-1.476-.2-2.213-.385-.134-.033-.359.062-.481 0-.483-.241-1.078-.057-1.54.097-.108.035-.397.012-.481.096-.158.158-.407.54-.674.673-.207.104-.37-.007-.577.097-.082.04-.117.142-.193.192a6.653 6.653 0 0 1-.962.481c-.205.069-1.133.17-1.251.29-.051.05-.037.152-.097.192-.053.035-.131-.02-.192 0-.116.038-.173.25-.289.288-.583.195-1.082.578-1.636.578z" id="path2009"/><path style="fill:none;stroke:#000;stroke-width:1px;stroke-linecap:butt;stroke-linejoin:miter;stroke-opacity:1" d="M225.494 137.048c-.235.068-.985 1.021-1.06 1.058-.028.015-.073-.022-.095 0-.116.116-.015.32-.097.482-.03.06-.195.285-.096.385.262.26 1.112.358 1.444.192.058-.03.244.045.289 0 .199-.2-.305.008.096-.192.08-.04.135-.04.192-.097.032-.032.065-.256.097-.288.199-.2-.008.304.192-.097.043-.086-.03-.197 0-.288.029-.086.152-.112.192-.193.03-.057-.028-.135 0-.192.206-.41-.006-.39-.288-.674-.023-.023.028-.082 0-.096-.058-.029-.135.029-.193 0-.028-.014.029-.082 0-.096-.26-.13-.397-.042-.673.096z" id="path2011"/><path style="fill:none;stroke:#000;stroke-width:1px;stroke-linecap:butt;stroke-linejoin:miter;stroke-opacity:1" d="M234.059 130.503c-.296.114-1.415.588-1.54.963-.02.06.02.131 0 .192-.047.141-.233.217-.289.385-.026.08-.188.863-.192.866-.023.023-.082-.028-.096 0-.077.154.077.424 0 .578-.036.071-.204.374-.096.481.022.023.073-.023.096 0 .044.045-.03.23 0 .289.133.267.195.586.288.866.03.086.164.106.193.192.085.257.124.524.289.77.11.167.294.3.385.482.118.237-.28-.087.096.288.023.023.073-.022.096 0 .113.113.167.456.289.578.022.022.073-.023.096 0 .257.256-.257-.065 0 .192.023.023.074-.023.096 0 .13.13.084.47.193.578.022.022.073-.023.096 0 .048.048-.048.24 0 .288.023.023.073-.022.096 0 .044.045.155.31.193.385.029.059.055.249.096.289.045.045.135-.029.192 0 .112.056.177.136.289.193.077.038.212-.039.289 0 .112.056.176.136.288.192.103.051.283-.051.385 0 .03.014-.028.082 0 .096.058.029.132-.02.193 0 .1.033.193.145.289.193.057.028.147-.046.192 0 .072.071.138.33.193.385.022.022.073-.023.096 0 .18.179.037.533.096.77.211.845.164 2.49-.096 3.272-.03.089-.145 1.587-.096 1.636.16.16.096-.353.096.192 0 .04.025.264 0 .29-.046.044-.135-.03-.193 0-.623.31-1.01-.362-1.443-.578-.453-.227-2.295.177-2.599.48-.329.33.124 1.967-.096 2.407-.068.135-.523.38-.674.481-.257.172-.874.677-1.155.77-.08.027-.212-.038-.288 0-.178.089-.393.131-.578.193-.278.092-.588.004-.866.096-.162.054-.87.383-1.059.288-.103-.051-.822-.437-.866-.48-.199-.2.304.007-.096-.193-.296-.148-.589-.3-.77-.481-.164-.165-.273-.642-.385-.867-.038-.077.039-.211 0-.288-.292-.585-.262-1.363-.481-2.021-.048-.145.096-.097 0-.29-.032-.063-.16-.031-.193-.095-.05-.1-.056-.221-.192-.29-.131-.065-.36-.07-.481-.192-.023-.022.022-.073 0-.096-.036-.035-.326-.066-.385-.096-.303-.151-.548-.471-.866-.577-.313-.105-.731-.042-1.06-.097-.27-.045-.293-.098-.48-.192-.103-.051-.283.051-.385 0-.204-.102-.48 0-.674-.096-.242-.121-.51-.106-.77-.193-.1-.033-.193-.145-.289-.192-.058-.03-.244.044-.288 0-.023-.023.022-.074 0-.096-.023-.023-.068.014-.097 0a23.356 23.356 0 0 1-.962-1.06c-.029-.057.02-.13 0-.192-.093-.28-.1-.134-.289-.385-.184-.245-.205-.596-.385-.866-.366-.549-1.015-1.478-.77-2.213.11-.33.192-.768.385-1.059.123-.183.343-.246.482-.385.109-.109.129-.305.288-.385.119-.059.223-.127.29-.192.114-.115.269-.463.384-.578.193-.193.434-.387.577-.673.121-.242.196-.492.29-.77.064-.194-.05-.914.095-1.06a1.09 1.09 0 0 1 .29-.192c.085-.043.22.068.288 0 .048-.048.048-.144.096-.192.045-.045.147.045.193 0 .044-.045-.03-.23 0-.289.056-.112.136-.176.192-.288.192-.385-.192-1.06 0-1.444.112-.224.37-.356.481-.578.035-.07.056-.44.096-.48.023-.023.074.022.097 0 .118-.12.246-.44.385-.578.1-.101.433-.277.577-.385.183-.137.467-.124.674-.193.02-.007.733-.54.77-.577.263-.263.465-1.139.673-1.347.128-.128.634-.52.867-.578.233-.058.577-.097.77-.289.05-.05.036-.152.096-.192.053-.036.135.029.192 0 .193-.096.144-.193.289-.289.084-.056.217-.024.289-.096.022-.023-.023-.074 0-.096.024-.024.501-.155.577-.193.165-.082.174-.236.385-.288.305-.077 1.351-.057 1.636 0 .259.051.497.325.674.384.06.02.131-.02.192 0 .547.183 1.315 1.794 1.444 2.31.071.287.343.443.481.674.149.247.222.525.385.77.264.396.85.273 1.155.577.132.133.185.326.289.482z" id="path2013"/><path style="fill:none;stroke:#000;stroke-width:1px;stroke-linecap:butt;stroke-linejoin:miter;stroke-opacity:1" d="M109.426 191.713c.586.013 1.205.313 1.733.577.653.327 1.2.806 1.828 1.155.576.32 1.296.599 1.925.77.728.199 2.826-.185 3.657-.289.296-.037 1.035-.252 1.348-.096.549.275.508.574.77.77.08.061.21.033.288.096.109.087.7.919.77 1.059.086.171.132.587.193.77.169.506.778 1.452 1.155 1.828.34.342 2.287 1.783 2.31 1.83.045.09.035.207.096.288.043.057.152.036.192.096.036.053-.029.135 0 .192.252.504.392.16.481.963.059.524-.036.783-.192 1.251-.02.06.029.135 0 .192-.067.135-.732.182-.866.29-.09.071-.12.198-.193.288-.607.76-1.69 2.203-1.155 3.272.072.144.204.25.29.385.213.342.315.744.577 1.059.366.44.856.76 1.25 1.155.051.05.046.141.097.192.113.114.28.167.385.289.42.49-.028.268.385.577.052.04.256.095.289.193.02.06-.016.13 0 .192.09.36.408.697.48 1.059.039.189-.026.387 0 .577.007.045.086.053.097.097.103.41.075 1.69-.096 2.117-.049.12-.778 1.644-.866 1.732-.082.082-.217.102-.29.193-.063.079-.03.21-.095.288-.213.255-.603.477-.867.674-.25.187-.414.501-.673.674-.085.056-.198.05-.289.096-.34.17-.656.455-.962.674-.415.296-.88.486-1.348.673-.47.188-.875.613-1.347.77-.948.316-2.667.583-3.657.385-.464-.092-.903-.507-1.348-.673-1.46-.548.49.272-.673-.193-.77-.308-1.476-.786-2.214-1.155-.309-.154-.653-.23-.962-.385-.104-.051-.18-.152-.289-.192-.153-.058-.328-.039-.481-.096-.217-.082-.361-.304-.578-.385-.153-.058-.332-.029-.48-.097-.496-.225-.901-.614-1.445-.77-.157-.044-.33-.031-.48-.096-.084-.035-.112-.152-.193-.192-.144-.072-.324.031-.481 0-.871-.174.261-.01-.29-.193-.204-.068-.492-.011-.673-.192-.238-.239-.096-2.278-.096-2.791v-2.984c0-.532-.066-1.108 0-1.636.074-.596.949-1.292 1.059-1.732.147-.588-.028-1.756.096-2.502.071-.428.323-.816.385-1.251.099-.694.019-1.42.096-2.118.131-1.18.542-2.326.77-3.464.146-.732.005-1.48.096-2.214.083-.659.716-1.226.866-1.829.055-.217 0-.449 0-.673 0-.711.053-.956-.385-1.54z" id="path2128"/><path style="fill:none;stroke:#000;stroke-width:1px;stroke-linecap:butt;stroke-linejoin:miter;stroke-opacity:1" d="M115.393 199.893c.618.08.95.566 1.348.963.105.105.402.21.481.288.046.047.191.353.289.385.41.137.23.135.48.385.024.023.075-.022.097 0 .096.097 0 .385.096.482.177.176.193.074.193.48 0 .06.037.348 0 .386-.157.156-.437.244-.578.385-.488.488-.983 1.915-.866 2.502.13.65.686 1.18.963 1.732.04.082.163.107.192.193.16.482.435.966.674 1.443.2.401-.007-.102.192.097.046.045-.045.147 0 .192.023.023.074-.023.096 0 .045.044.155.31.193.385.147.293.13.743.289 1.059.02.04.076.055.096.096.099.198 0 .827 0 1.059 0 .064.045.147 0 .192-.078.078-1.446.273-1.54.289-.431.072-.983.005-1.347.096-.42.105-.574.098-.963-.096-.086-.043-.197.03-.289 0-.3-.1.033-.064-.096-.193-.022-.022-.064 0-.096 0-.032-.032-.071-.058-.096-.096-.262-.393-.462-.983-.578-1.443-.119-.478-.01-1.693.097-2.118.113-.453-.092-.985 0-1.443.141-.71.46-1.403.77-2.021.101-.204 0-1.786 0-2.118 0-1.138.18-2.45-.097-3.56z" id="path2130"/><path style="fill:none;stroke:#000;stroke-width:1px;stroke-linecap:butt;stroke-linejoin:miter;stroke-opacity:1" d="M143.977 208.266c-.528-.067-.535.123-.866.29-.057.028-.135-.03-.193 0-.064.031-1.11 1.216-1.154 1.346-.056.166.084.199-.097.29-.028.014-.073-.024-.096 0-.045.045.046.146 0 .192-.023.022-.073-.023-.096 0-.127.127-.773 1.064-.866 1.25-.054.109-.023.505-.096.578-.023.023-.082-.028-.097 0-.109.22 0 .702 0 .963 0 .134.034.611.097.673.142.142.363.267.48.385.023.023-.022.074 0 .097.317.316 1.156.224 1.54.096.535-.179 1.477-.033 1.925-.481.05-.05.143-.24.193-.29a3.2 3.2 0 0 1 .674-.48c.146-.074.169-.266.288-.385.023-.023.074.022.097 0 .196-.197.35-.448.48-.578.023-.023.074.023.097 0 .04-.04.067-.23.096-.289.137-.274.499-.507.674-.77.59-.886-.32.449.096-.384.005-.01.154-.117.193-.193.062-.126.035-.761 0-.866-.015-.043-.086-.052-.097-.096-.023-.094.024-.196 0-.289-.021-.087-.15-.206-.192-.289-.029-.057.029-.135 0-.192-.04-.081-.152-.112-.193-.193-.3-.6-.664-.927-1.347-1.155-.147-.049-.31-.153-.481-.096-.059.02-.23.173-.289.193-.091.03-.203-.043-.289 0-.278.139-.38.372-.48.673z" id="path2132"/><path style="fill:none;stroke:#000;stroke-width:1px;stroke-linecap:butt;stroke-linejoin:miter;stroke-opacity:1" d="M141.186 200.663c-.667.242-1.373.603-1.828 1.059-.492.492.403-.134-.29.385-.057.043-.141.045-.192.096-.145.145-.203.407-.288.578-.086.17-.392.391-.482.48-.055.057-.136.33-.192.386-.085.085-.406.233-.481.385a1.83 1.83 0 0 1-.289.385c-.032.032-.257.064-.289.096-.05.05-.045.142-.096.192-.057.057-.43.167-.481.193-.122.06-.176.213-.289.289-.128.085-.424.212-.577.288-.652.326-1.39.55-2.021.866-.4.2.102-.007-.097.193-.048.048-.144.048-.192.096-.025.025-.143.767-.193.866-.056.112-.136.177-.192.289-.051.102-.01.3-.096.385-.023.023-.074-.023-.096 0-.129.128.128.064 0 .192-.023.023-.082-.028-.097 0-.043.087.068.221 0 .29-.199.198.008-.305-.192.095-.029.058.029.135 0 .193-.2.4.007-.103-.193.096-.045.045.046.147 0 .193-.022.022-.073-.023-.096 0-.045.045.046.147 0 .192-.023.023-.073-.023-.096 0-.126.126-.04 1.222-.096 1.444-.177.706-.221 1.77.096 2.406.03.058-.045.244 0 .288.023.023.074-.022.096 0 .046.046-.045.148 0 .193.023.023.074-.023.096 0 .04.04.067.23.097.289.057.115.23.173.288.288.154.307.366.615.482.963.074.224.528 2.068.577 2.117.322.322.986.658 1.444.962.355.238.54.638.77.867.059.059.224.063.288.192.086.17.237.43.385.578.023.022.074-.023.096 0 .088.088.23.362.29.48 0 .003.843 1.133.865 1.156.051.05.142.045.193.096.297.297.47.95.77 1.251.104.104 1.495.498 1.732.577.231.077.533-.059.77 0 .952.238 2.51.19 3.368-.096.145-.048.337.048.482 0 .142-.047.264-.152.385-.192.121-.04.26.03.385 0 .294-.074 1.696-.306 1.828-.385.078-.047.111-.152.193-.193.199-.1.702-.22.866-.385.023-.022-.015-.067 0-.096.068-.136.19-.143.289-.192.05-.025.381-.478.48-.578.185-.184.394-.297.578-.48.163-.164.373-.476.578-.578.17-.086.423-.187.577-.29.26-.172.424-.486.674-.673.115-.086.283-.09.385-.192.05-.051.045-.142.096-.193.228-.227.534-.438.77-.673.723-.723.72-2.125.481-3.08-.045-.181.045-.396 0-.578-.096-.384-.263-.79-.385-1.155-.108-.325-.028-.73-.192-1.058-.052-.104.037-.274 0-.385-.358-1.073.09-2.348-.097-3.465-.044-.267-.237-.514-.288-.77-.02-.094.035-.2 0-.288-.034-.085-.142-.117-.193-.193-.263-.394-.586-.832-.866-1.251-.05-.076-.152-.111-.192-.193-.098-.194-.702-1.375-.77-1.443-.2-.2.008.304-.193-.096-.118-.237.28.086-.096-.29-.05-.05-.142-.045-.193-.095-.017-.018-.078-.271-.096-.29-.117-.116-.215-.044-.288-.192-.03-.057.028-.135 0-.192-.126-.25-.94-.854-1.155-.962-.37-.185-.784-.296-1.155-.482-.058-.029-.244.045-.289 0-.023-.022.023-.073 0-.096-.109-.109-.434-.12-.577-.192-.096-.048-.19-.16-.29-.193-.098-.033-.655-.174-.673-.192-.023-.023.023-.074 0-.097-.022-.022-.715-.082-.77-.096-.174.058-.179-.156-.288-.192-.26-.087-.607.086-.867 0-.311-.104-.42-.053-.77-.096-.62-.078-1.022-.25-1.636-.097z" id="path2134"/><path style="fill:none;stroke:#000;stroke-width:1px;stroke-linecap:butt;stroke-linejoin:miter;stroke-opacity:1" d="M162.263 200.47c-.019.385-.295.7-.385 1.06-.148.592.193 1.346 0 1.924-.014.043-.082.053-.096.096-.068.205-.002.581-.096.77-.057.113-.115.403-.193.482-.023.022-.082-.03-.096 0-.053.106.038.272 0 .385-.114.34-.176.622-.289.962-.065.194.09.493 0 .674-.32.642-.289 2.058-.289 2.887 0 .623.107 3.347 0 3.56-.095.192-.023.167-.096.386-.047.142-.242.246-.288.385-.098.292-.237.717-.482.962-.05.05-.141.046-.192.096-.2.2.304-.008-.096.193-.029.014-.074-.023-.097 0-.045.045.046.147 0 .192-.022.023-.073-.022-.096 0-.141.142-.192 1.653-.192 1.925 0 .872-.047 1.74.096 2.599.036.218-.036.455 0 .673.066.395.15.496.192.963.04.43.06.758.193 1.155.057.172-.03.396 0 .577.153.916.096 1.858.096 2.791 0 .084-.074.696 0 .77.243.243.845.115 1.155.193.925.23 1.88.192 2.887.192.315 0 .754-.076 1.059 0 .044.011.052.085.096.096.303.076.653.052.963.096.286.041.576.145.866.193.218.036.455-.031.673 0 1.105.158 2.246.096 3.369.096.647 0 1.38.092 2.02 0 .163-.023.834-.15.963-.192.11-.037.18-.152.29-.193 1.204-.452-.062.164.769-.192.17-.073.474-.335.674-.385.486-.122 1.122-.3 1.54-.578.162-.108.79-.573.866-.673.21-.281-.048-.133.288-.385.058-.043.142-.046.193-.097.176-.175.237-.476.385-.673.183-.244.517-.317.674-.578.052-.087.035-.207.096-.288.043-.058.142-.046.192-.097.243-.242.485-.582.674-.866.259-.388.696-.69 1.059-.962.692-.52-.204.107.288-.385.318-.318.067.125.385-.193.023-.022-.022-.073 0-.096.291-.29.634-.361.77-.77.058-.173-.057-.404 0-.577a3.88 3.88 0 0 0 .193-.77c.02-.155-.057-.502 0-.674.171-.515.41-1.284.192-1.828-.504-1.26-2.411-2.412-3.368-3.369-.186-.186-.306-.402-.481-.577-.118-.118-.363-.21-.482-.29-.37-.246-.754-.713-1.058-.865-.04-.02-.056-.076-.097-.096-.028-.015-.096.032-.096 0 0-.218.655-.627.77-.77.108-.135.097-.338.193-.482.268-.402.657-.737.866-1.154.072-.144.271-.176.385-.29.05-.05.045-.141.096-.192.584-.583 1.27-1.04.481-1.828-.071-.072-.169-.073-.288-.193-.063-.062-.092-.284-.193-.385-.1-.099-.19-.093-.289-.192-.424-.424-.651-1.066-1.155-1.444-.137-.103-.407-.342-.577-.385-.062-.015-.14.036-.193 0-.06-.04-.036-.152-.096-.192-.053-.036-.139.035-.192 0-.153-.102-.365-.529-.481-.674-.306-.381-.561-.844-.867-1.251-.168-.225-.205-.59-.385-.77-.064-.065-.662-.139-.77-.193-.134-.067-.212-.158-.384-.192-.439-.088-1.005 0-1.444 0-.994 0-2.096-.14-3.08 0-.556.08-1.105.252-1.636.385-.57.142-2.304 0-3.08 0-1.081 0-2.38.188-3.272-.481z" id="path2136"/><path style="fill:none;stroke:#000;stroke-width:1px;stroke-linecap:butt;stroke-linejoin:miter;stroke-opacity:1" d="M168.326 208.074c.365.01.583-.243.866-.385.077-.039.212.038.29 0 .319-.16 1.677-.536 2.02-.193.113.113.048.336.096.482.06.18.12.24.193.385.102.204-.073.55 0 .77.115.345.168 1.275-.096 1.54-.27.269-.857.38-1.252.577-.237.118.087-.28-.288.096-.045.045.029.23 0 .289-.43.86.403 1.883.673 2.695.02.06-.028.135 0 .192.131.261.264.24.482.385.22.147.31.407.48.577.172.172.524.33.675.482.022.022-.015.067 0 .096.2.4-.007-.103.192.096.023.023-.023.074 0 .096.023.023.074-.022.096 0 .023.023-.014.068 0 .096.2.401-.007-.102.193.097.022.022-.023.073 0 .096.177.177.466.355.577.577.178.356.338.697-.192.963l-.963.48c-.08.041-.106.165-.192.193-.061.02-.13-.015-.193 0-.174-.058-.179.156-.288.193-.092.03-.21-.054-.29 0-.182.122-.305.35-.48.481-.23.173-.527.32-.77.481-.124.083-.946.499-.963.481-.068-.068.03-.197 0-.288-.199-.597-.093-.756-.192-1.348-.148-.887-.263-3.446 0-4.234.18-.54-.091-1.768 0-2.406.084-.593.236-2.135.096-2.695-.022-.089-.163-.2-.192-.289-.03-.091.043-.202 0-.288-.041-.082-.152-.112-.193-.193-.029-.057.045-.147 0-.192-.023-.023-.064 0-.096 0l-.289-.385z" id="path2138"/><path style="fill:none;stroke:#000;stroke-width:1px;stroke-linecap:butt;stroke-linejoin:miter;stroke-opacity:1" d="M144.362 235.599c-.901.123-1.832.501-2.695.674-.498.1-.969.29-1.443.385-.198.04-.314.232-.482.288-.203.068-.363.043-.577.096-.673.169-1.264.683-1.829 1.06-.19-.01-.045.14-.096.192-.022.022-.082-.03-.096 0-.08.161-.03.51-.192.673-.023.023-.074-.022-.097 0-.113.113.076.523 0 .674-.02.04-.076.056-.096.096-.097.195 0 .809 0 1.059 0 .064-.045.147 0 .192.116.117.6.3.77.385.057.029.132-.02.193 0 .234.078.476.19.673.289.117.058.353-.021.481 0 .536.09 1.015.297 1.54.385.753.125 1.644 0 2.406 0 .194 0 1.536-.004 1.54 0 .102.101-.121.26-.192.385-.192.336-.273.626-.385.962-.056.17-.29.34-.385.482-.223.333-.22.63-.385.962-.363.726-.424 1.56-.674 2.31-.03.092-.184.175-.192.192-.087.173-.05.533-.193.77-.047.078-.152.112-.192.193-.029.057.024.133 0 .192-.089.221-.28.559-.385.77-.218.436-.646.811-.866 1.251-.046.09-.036.208-.097.289-.043.057-.152.037-.192.096-.036.054.029.135 0 .193-.01.017-.162.1-.193.192-.03.091.043.203 0 .289-.119.238-.096-.033-.096.192 0 .189.02 1.368.096 1.444.16.16.989.446 1.252.577.08.041.106.164.192.193.06.02.135-.029.193 0 .08.04.114.146.192.192.407.245 1.051.415 1.54.578.111.037.273-.028.385 0 .174-.058.179.156.289.192.168.056.313.04.48.096.17.057.38.256.578.29.127.02.258-.019.385 0 .201.028.377.158.578.192.488.081 1.158.159 1.636 0 .607-.203 1.477-1.013 1.828-1.54.08-.12.091-.284.193-.385.05-.05.152-.037.192-.096.036-.054-.028-.135 0-.193.062-.123.339-.246.385-.385.124-.371.198-.396.385-.77.11-.22.06-.378.193-.577.44-.661.875-1.199 1.347-1.829.15-.198.166-.47.289-.673.175-.292.411-.535.577-.867.24-.48.448-1.116.578-1.636.04-.159.023-.432.096-.577.253-.507.39-1.173.577-1.732.15-.451.528-.812.674-1.252.131-.393.29-.773.481-1.155.076-.151-.011-.662.096-.77.023-.022.082.03.097 0 .052-.103-.029-.368 0-.48.16-.644.052-.753-.097-1.348-.03-.125.048-.266 0-.385-.236-.591-.086-.086-.385-.385-.101-.101-.112-.266-.192-.385l-.096-.096c-.032 0-.074.023-.096 0-.023-.023.014-.068 0-.096-.011-.022-.81-.906-.867-.963-.046-.046-.318-.142-.385-.192-.418-.314-.901-.643-1.347-.866-.086-.043-.195.023-.289 0-.999-.25-2.048-.064-3.08-.193-.928-.116-1.85-.096-2.79-.096-.588 0-1.176.14-1.733 0z" id="path2142"/><path style="fill:none;stroke:#000;stroke-width:1px;stroke-linecap:butt;stroke-linejoin:miter;stroke-opacity:1" d="M178.624 237.524c.058.163-.076 3.292 0 3.368.073.074.685.164.77.193.101.033.39.05.481.096.072.036.354.16.385.192.023.023-.029.082 0 .097.058.028.132-.02.193 0 .282.094.514.45.77.577.057.029.13-.016.192 0 .09.023.524.236.577.289.023.022-.022.073 0 .096.028.027.493.054.578.096.195.098.3.294.481.385.057.029.132-.02.193 0 .114.038.18.235.288.289.099.05.32.128.385.192.018.018.079.271.096.289.2.2-.008-.304.193.096.12.241.29.582.385.866.043.13.038.364.096.482.038.075.148.34.193.385.022.022.082-.03.096 0 .043.086.258.841.289.962.15.598.018 1.209.096 1.829.05.397.223.761.288 1.154.06.36.082 3.784 0 3.946-.114.23-.203.728-.48.867-.293.146-.53.204-.867.288-.14.035-.246.158-.385.193-.093.023-.203-.043-.289 0-.515.258-1.163.388-1.732.577-.3.1-.658.351-.962.481-.122.052-.267.037-.385.097-1.01.504-2.133.787-3.176 1.25-2.431 1.081-3.017 1.733-5.871 1.733-.52 0-1.055.065-1.54-.096-.578-.193-1.331.148-1.925 0a13.099 13.099 0 0 1-.962-.289c-.144-.048-.337.048-.481 0-.338-.112-.573-.382-.867-.577a48.057 48.057 0 0 1-2.213-1.54c-.56-.42-.957-1.054-1.444-1.54-.453-.453-.979-.795-1.347-1.347-.449-.673-1.128-2.778-.866-3.561.071-.215.129-.61.288-.77.172-.172.427-.262.674-.385.454-.227.66-.648.866-1.059.041-.081.152-.111.193-.192.043-.086-.03-.198 0-.29.04-.12.145-.242.192-.384.134-.4.064-.875.289-1.251.2-.333.59-.686.866-.963.064-.064.112-.152.193-.192.028-.014.082.029.096 0 .029-.058-.02-.132 0-.193.02-.058.752-.565.77-.577.344-.23.494-.687.77-.962.082-.082.207-.111.288-.193.333-.333.679-.776.963-1.155.3-.4.723-.53 1.059-.866.117-.117.045-.215.192-.289.237-.118-.087.28.289-.096.116-.116.191-.288.288-.385.197-.196.812-.584 1.06-.77.144-.109.222-.304.384-.385.058-.028.132.02.193 0 .086-.028.117-.142.192-.192.366-.244.908-.481 1.347-.481.44 0 .812-.144 1.252-.193.767-.085 1.539-.192 2.31-.289 1.25-.156 2.516.097 3.753.097z" id="path2144"/><path style="fill:none;stroke:#000;stroke-width:1px;stroke-linecap:butt;stroke-linejoin:miter;stroke-opacity:1" d="M177.373 243.01c-.831.466-1.47 1.215-2.31 1.636-.147.073-.42.043-.577.096-.133.044-.247.146-.385.192-.255.085-.535.267-.77.385-.064.032-.032.16-.096.193-.058.028-.132-.02-.193 0-.181.06-.61 1.091-.77 1.25-.023.024-.073-.022-.096 0-.045.046.029.136 0 .193-.113.226-.246.561-.385.77-.076.114-.246.16-.289.289-.02.06.02.132 0 .192-.05.151-.2.061-.289.193-.212.048-.05.198-.096.289-.088.177-.2.015-.288.192-.015.029 0 .064 0 .096-.033.065-.054.135-.097.193-.2.268-.52.367-.673.674-.195.389.12 1.491.288 1.828.043.086-.03.198 0 .289.043.129.214.175.29.289.073.11.058.296.192.385.895.596 3.281.861 4.234.385.129-.065.353.064.481 0 .082-.041.115-.146.193-.193.243-.146.647-.21.866-.385.09-.072.11-.207.193-.289.233-.233.14.029.288-.192.983-1.475.963-3.094.963-4.812 0-.279.084-.709 0-.963-.158-.474-.554-.834-.866-1.25-.165-.22-.422-1.585-.097-1.83.082-.06.193-.064.29-.096z" id="path2146"/><path style="fill:none;stroke:#000;stroke-width:1px;stroke-linecap:butt;stroke-linejoin:miter;stroke-opacity:1" d="M204.128 240.218c-.46.193-2.35.696-2.502 1.155-.02.061.035.14 0 .193-.04.06-.153.036-.193.096-.035.053.02.132 0 .193-.013.038-.18.154-.192.192-.14.417.184-.035-.097.385-.074.111-.214.178-.288.289-.067.1-.107.396-.193.48-.022.024-.067-.013-.096 0-.187.094-.405.521-.481.675-.092.183-.336.24-.481.385-.122.121-.286.478-.385.577-.165.165-.541.408-.674.674-.435.87-.843 1.875-.385 2.79.043.087-.03.198 0 .29.07.208.354.482.481.673.254.38 1.488.385 1.925.385.31 0-.164-.023.193.096.125.042 1.588.072 1.732 0 .233-.116.537-.133.77-.288 1.016-.678 1.108-1.306 1.347-2.503.129-.643.385-1.255.385-1.925 0-.798.057-1.64-.096-2.406-.14-.701-.971-1.18-1.155-1.732-.068-.204 0-.555 0-.77" id="path2148"/><path style="fill:none;stroke:#000;stroke-width:1px;stroke-linecap:butt;stroke-linejoin:miter;stroke-opacity:1" d="M206.438 234.636c-.766.208-1.48.683-2.214.867-.374.093-.787.105-1.155.288-.28.14-.726.319-1.058.385-.095.02-.195-.019-.29 0-.14.028-.243.165-.384.193-.304.06-.505-.036-.77.096-.177.089-.477-.05-.674 0-.567.142-1.305.123-1.828.385-.4.2.103-.007-.096.192-.137.137-.432.167-.578.385-.474.712-.813 1.295-1.444 1.925-.163.164-.715.454-.962.578-.057.028-.135-.029-.192 0-.082.04-.112.152-.193.192-.077.039-.212-.038-.289 0-.295.148-.66.367-.866.674-.192.288-.393.612-.481.962-.05.197.089.496 0 .674-.123.246-.777.296-.962.481-.059.058-.509.56-.578.674-.128.213-.137.452-.192.674-.05.198-.213.387-.29.577-.142.357-.121.726-.288 1.059-.08.161-.099.294-.192.48-.04.082-.164.107-.193.193-.02.061.029.135 0 .193-.255.51-.794.89-1.155 1.251-.191.191-.438.535-.577.674-.023.022-.074-.023-.096 0-.046.045.028.135 0 .192-.073.146-.334.232-.385.385-.02.061.028.135 0 .193-.01.018-.172.075-.193.096-.085.085.027.566 0 .674-.099.395-.123.688 0 1.058.051.152-.031.324 0 .481.043.214.224 1.058.289 1.155.576.865 2.465 1.026 3.368 1.251.234.059.47.221.674.29.33.11.732.083 1.059.192.697.232-.152-.028.288.192.115.057.26-.025.385 0 .29.058.578.126.867.193.387.089.774.29 1.155.385.08.02.3-.043.384 0 .539.269 1.896.1 2.503 0 .46-.077.992.112 1.443 0 .371-.093.769-.225 1.155-.29.095-.015.198.031.289 0 .11-.036.181-.149.289-.192.52-.208-.152.262.385-.096.058-.039.188-.287.192-.289.058-.028.135.03.193 0 .064-.032.036-.152.096-.192-.011-.182.224-.064.289-.096.213-.107.698-.612.962-.77.523-.314 1.079-.492 1.636-.77.34-.17.59-.429.963-.578.399-.16.775-.291 1.154-.48.49-.246 1.133-.71 1.54-1.06.138-.118.23-.291.385-.384.087-.053.208-.036.289-.097.234-.175-.03-.178.192-.288.458-.23.845-.627 1.348-.963.28-.187.48-.192.77-.288.333-.112.843-.857.962-1.155.165-.413.186-1.38.096-1.829-.046-.232-.337-.48-.192-.77.2-.401.401-.867.481-1.347.032-.19-.038-.389 0-.578a9.014 9.014 0 0 0 .193-1.925c0-.18-.127-1.266-.29-1.347-.247-.124-.524-.303-.77-.385-.28-.094-.805.03-1.058-.096-.57-.286-1.381.032-2.02-.096-.306-.061-.567-.133-.867-.193-.34-.068-.736-.93-1.251-1.058-.361-.09-1.382-.227-1.636-.482-.013-.012.05-1.743.096-1.924.066-.263.22-.496.289-.77z" id="path2150"/><path style="fill:none;stroke:#000;stroke-width:1px;stroke-linecap:butt;stroke-linejoin:miter;stroke-opacity:1" d="M230.402 234.059c-.398-.288-.61-.674-.866-1.059-.148-.22-.055.042-.289-.192-.023-.023.023-.074 0-.096-.265-.265-2.625-.805-3.08-.578-.113.057-.182.218-.288.289-.188.125-.41.12-.578.289-.163.163-.126.222-.289.385-.258.258-.728.515-.962.866-.197.296-.284.666-.481.962l-.096.096c-.033 0-.074-.022-.097 0-.045.046.046.148 0 .193-.05.05-.141.045-.192.096-.21.21-.207.532-.385.77-.082.109-.246.16-.289.289-.02.06.029.135 0 .192-.005.01-.154.116-.192.193-.102.202.014 1.473.096 1.636.015.03.186.282.192.289.164.163 2.27.654 2.503.577a3.604 3.604 0 0 0 2.117-1.829c.04-.08.152-.11.192-.192.108-.214.341-.844.578-.962.094-.048.535-.165.577-.193.076-.05.109-.159.193-.192.09-.036.194.018.289 0 .31-.063.661-.189.962-.29.202-.067.472.068.674 0 .236-.078.575-.168.866-.095.196.049.414.207.577.288.102.051.276-.036.385 0 .398.133.862.19 1.251.385.342.171.857.96 1.155 1.059.061.02.14-.036.193 0 .06.04.045.142.096.192.045.046.135-.028.192 0 .401.2-.102-.007.097.193.022.023.073-.023.096 0 .13.13-.053.64-.096.77-.135.404-.144.287-.29.577-.028.058.03.135 0 .193-.2.4.008-.103-.192.096-.465.466.21-.072-.096.385-.04.06-.142.046-.192.096-.296.296.056.08-.096.385-.114.228-.328.231-.482.385-.022.023 0 .064 0 .096-.064.065-.117.142-.192.193-.239.159-.442.25-.674.481-.252.252-.612.42-.866.674-.023.022.023.073 0 .096-.084.084-.289.144-.385.289-.19.285-.486.488-.674.77a5.21 5.21 0 0 0-.288.48c-.076.151-.295.109-.385.29-.015.028.022.073 0 .096-.051.05-.142.045-.193.096-.023.023.018.07 0 .096-.258.388-1.074 1.166-1.443 1.444-.517.387-1.219.442-1.829.577-.661.147-1.292.367-1.925.578-.732.244.855-.681-.674.192-.078.045-.114.146-.192.193-.58.347-1.48.654-2.117.866-.264.088-.529.304-.77.385-.374.124-1.754.025-2.118-.096-.398-.133-.968-.584-1.25-.867-.345-.344-1.06-1.059-1.348-1.443-.144-.193-.448-.736-.578-.866-.063-.064-.207-.167-.288-.29-.184-.274-.037-.124-.097-.48.194-.172-.16-.29-.192-.385-.03-.092.043-.203 0-.29-.139-.277-.33-.634-.385-.961-.08-.481-.064-2.118.096-2.599.037-.11.23-.134.289-.192.05-.051.045-.142.096-.193.168-.168.39-.164.578-.289.16-.106.361-.418.48-.577.433-.577.857-1.14 1.252-1.732.137-.207.276-.166.481-.29.239-.142.305-.4.481-.577.051-.05.142-.045.193-.096.432-.432.597-1.084.962-1.54.265-.33.61-.621.866-.962.34-.453.624-1.055.867-1.54.077-.155.215-.202.288-.385.179-.446.75-1.904 1.059-2.214.295-.295.554-.42.866-.577.235-.117.411-.411.578-.577.101-.102.27-.107.385-.193.248-.186.415-.501.673-.674.2-.132.907-.635 1.059-.673.389-.098-.005.137.385-.096.196-.118.44-.327.674-.385.062-.016.132.023.192 0 .644-.258 1.13-.654 1.829-.77.82-.137 1.53.133 2.31.288.125.026.26-.03.384 0 .174.044.335.144.482.193.17.057.406.039.577.096.13.043.167.228.289.289.057.028.139-.036.192 0 .06.04.046.142.096.192.072.072.205.04.29.096.146.099.381.35.48.482.158.21.091.47.193.673.093.186.182.8.096 1.059-.125.376-1.013.917-1.347 1.251-.223.223-.404.606-.578.866-.088.132-.345.17-.385.289-.02.06.02.132 0 .193-.045.136-.233.137-.288.192-.072.072-.025.217-.097.289-.233.233-.141-.029-.288.192-.65.976-.941 1.238-1.925 1.829z" id="path2152"/><path style="fill:#fff;fill-opacity:1;stroke:#000;stroke-width:1.04978;stroke-linecap:round;stroke-linejoin:round;stroke-miterlimit:4;stroke-dasharray:none;stroke-opacity:1;stop-color:#000" id="path2494" d="m35.07 325.95-6.048.103-4.349-4.203-.103-6.047 4.203-4.35 6.048-.103 4.349 4.204.103 6.047z" transform="matrix(1.42143 0 0 1.43634 -10.597 -135.95)"/><path style="fill:#fff;fill-opacity:1;stroke:#000;stroke-width:1.04978;stroke-linecap:round;stroke-linejoin:round;stroke-miterlimit:4;stroke-dasharray:none;stroke-opacity:1;stop-color:#000" id="path2494-2" transform="matrix(1.42143 0 0 1.43634 24.472 -136.28)" d="m35.07 325.95-6.048.103-4.349-4.203-.103-6.047 4.203-4.35 6.048-.103 4.349 4.204.103 6.047z"/><path style="fill:#fff;fill-opacity:1;stroke:#000;stroke-width:1.04978;stroke-linecap:round;stroke-linejoin:round;stroke-miterlimit:4;stroke-dasharray:none;stroke-opacity:1;stop-color:#000" id="path2494-3" transform="matrix(1.42143 0 0 1.43634 58.517 -135.768)" d="m35.07 325.95-6.048.103-4.349-4.203-.103-6.047 4.203-4.35 6.048-.103 4.349 4.204.103 6.047z"/></svg>